# xmcd
# Copyright (C) 1995-1998 Ti Kan
#
# Track frame offsets:
#       150
#       5637
#       22755
#       40263
#       61302
#       64739
#       83643
#       101867
#       109398
#       128123
#       141291
#       147018
#       164027
#
# Disc length: 2257 seconds
#
# Revision: 0
# Processed by: cddbd v1.4PL0 Copyright (c) Steve Scherf et al.
# Submitted via: CD-Transfer v1.0
#
DISCID=b408cf0d
DTITLE=Cigi - Figlio Del Sud
DYEAR=2002
DGENRE=
TTITLE0=Striscia La Notizia
TTITLE1=Nice Che Dice
TTITLE2=Figlio Del Sud
TTITLE3=Concetto Del Rispetto
TTITLE4=Primo Respiro
TTITLE5=Lascia Vivere
TTITLE6=La Famiglia
TTITLE7=Radio Cingon
TTITLE8=Sentimenti Confusi
TTITLE9=Az Du Caz
TTITLE10=Non Ne Posso Più
TTITLE11=Sole, Mare
TTITLE12=Ciao
EXTD=
EXTT0=
EXTT1=
EXTT2=
EXTT3=
EXTT4=
EXTT5=
EXTT6=
EXTT7=
EXTT8=
EXTT9=
EXTT10=
EXTT11=
EXTT12=
PLAYORDER=
